
<svg xmlns="http://www.w3.org/2000/svg" width="32" height="32" viewBox="0 0 32 32"><path d="M32 16c0-8.836-7.164-16-16-16S0 7.164 0 16s7.164 16 16 16 16-7.164 16-16zm0 0" fill="#444"/><path d="M8.914 11.195c0-.898.29-1.804.863-2.726.578-.922 1.418-1.684 2.524-2.29 1.105-.605 2.394-.906 3.87-.906 1.368 0 2.579.25 3.626.758 1.05.504 1.86 1.192 2.43 2.063.574.867.859 1.812.859 2.832 0 .804-.164 1.508-.488 2.113a6.542 6.542 0 0 1-1.164 1.566 91.418 91.418 0 0 1-2.414 2.215c-.325.293-.579.551-.774.774-.195.222-.34.426-.433.61a2.87 2.87 0 0 0-.22.554c-.05.183-.128.508-.234.969-.18.984-.742 1.472-1.683 1.472-.492 0-.906-.16-1.242-.48-.336-.32-.504-.797-.504-1.43 0-.793.125-1.48.37-2.062.247-.582.571-1.094.977-1.532.407-.437.953-.96 1.645-1.566.605-.527 1.039-.926 1.308-1.195.27-.27.497-.57.684-.903a2.17 2.17 0 0 0 .273-1.078c0-.754-.28-1.39-.843-1.91s-1.285-.781-2.172-.781c-1.043 0-1.805.261-2.297.789-.492.523-.906 1.293-1.246 2.316-.324 1.067-.934 1.602-1.828 1.602a1.79 1.79 0 0 1-1.34-.563c-.363-.37-.547-.777-.547-1.21zm6.914 15.532a2.22 2.22 0 0 1-1.508-.559c-.43-.375-.644-.895-.644-1.566 0-.594.207-1.094.625-1.5.414-.407.926-.61 1.527-.61.598 0 1.098.203 1.504.61.406.406.61.906.61 1.5 0 .66-.212 1.18-.637 1.558a2.152 2.152 0 0 1-1.477.567zm0 0" fill="#fff"/></svg>